<?xml version="1.0" standalone="no"?>
<!DOCTYPE svg PUBLIC "-//W3C//DTD SVG 20010904//EN"
 "http://www.w3.org/TR/2001/REC-SVG-20010904/DTD/svg10.dtd">
<svg version="1.0" xmlns="http://www.w3.org/2000/svg"
 width="200.000000pt" height="200.000000pt" viewBox="0 0 200.000000 200.000000"
 preserveAspectRatio="xMidYMid meet">

<g transform="translate(0.000000,200.000000) scale(0.100000,-0.100000)"
fill="#000000" stroke="none">
<path d="M0 1000 l0 -1000 475 0 475 0 1 110 c1 61 2 116 3 123 1 7 17 12 46
12 29 0 45 -5 46 -12 1 -7 2 -62 3 -123 l1 -110 475 0 475 0 0 1000 0 1000
-475 0 -475 0 -2 -237 -3 -238 -45 0 -45 0 -3 238 -2 237 -475 0 -475 0 0
-1000z m819 537 c132 -92 141 -107 141 -245 l0 -103 -119 81 c-91 62 -122 88
-130 112 -12 35 -15 228 -3 228 4 0 54 -33 111 -73z m481 -26 c0 -144 -2 -147
-141 -241 l-119 -81 0 103 c0 138 9 153 141 245 57 40 107 73 112 73 4 0 7
-44 7 -99z m-528 -292 c184 -128 188 -134 188 -309 0 -66 -2 -120 -5 -120 -2
0 -67 43 -143 95 -85 58 -144 106 -152 123 -8 16 -15 80 -18 161 -4 120 -3
133 12 128 8 -3 62 -38 118 -78z m586 -51 c-3 -81 -10 -144 -18 -160 -8 -17
-67 -65 -152 -123 -76 -52 -141 -95 -143 -95 -3 0 -5 54 -5 120 0 133 9 168
56 211 37 34 245 179 257 179 5 0 7 -57 5 -132z m-433 -477 c30 -42 30 -44 33
-198 3 -135 1 -155 -11 -150 -9 3 -83 52 -166 109 -194 132 -191 127 -191 337
l0 152 153 -104 c103 -70 162 -118 182 -146z m465 -95 c-16 -34 -46 -59 -171
-144 -83 -57 -157 -106 -166 -109 -12 -5 -14 15 -11 150 3 154 3 156 33 198
20 28 79 76 180 145 l150 102 3 -150 c2 -134 0 -155 -18 -192z"/>
</g>
</svg>
